<?xml version="1.0" encoding="utf-8"?>
<!-- Generator: Adobe Illustrator 19.1.0, SVG Export Plug-In . SVG Version: 6.00 Build 0)  -->
<svg version="1.1" id="Layer_1" xmlns="http://www.w3.org/2000/svg" xmlns:xlink="http://www.w3.org/1999/xlink" x="0px" y="0px"
	 viewBox="0 0 50 50" style="enable-background:new 0 0 50 50;" xml:space="preserve">
<style type="text/css">
	.st0{fill:#00CC99;}
</style>
<path class="st0" d="M1.6,13.1c0,0,3.3,2.6,5.2,2.6s3.4-0.6,5.4-0.6s2.8,1.1,3.6,1.2s3.6,1.1,6.1,0.4s2.4-0.8,3.9-0.8
	s2.6,1.1,5.2,0.9s4.5-1.4,6.1-1.6s4.4,0.4,6.2,0.3s2.8-0.5,3.6-0.9s1.7-1.7,1.7-1.7s-3,0.6-5.1,0.5s-2.5-0.5-3.5-1.2
	s-1.2-1.4-2.4-1.4s-2.7,1.4-5.9,1.4s-4.6-2-6.2-2s-2.8,2.2-6.2,2.2s-5.5-2-6.6-1.9s-1.1,1.8-3.4,2.2s-1.9,0.8-3.6,0.8
	S1.6,13.1,1.6,13.1z"/>
<path class="st0" d="M1.6,24.8c0,0,3.3,2.6,5.2,2.6s3.4-0.6,5.4-0.6s2.8,1.1,3.6,1.2s3.6,1.1,6.1,0.4s2.4-0.8,3.9-0.8
	s2.6,1.1,5.2,0.9s4.5-1.4,6.1-1.6s4.4,0.4,6.2,0.3s2.8-0.5,3.6-0.9s1.7-1.7,1.7-1.7s-3,0.6-5.1,0.5s-2.5-0.5-3.5-1.2
	s-1.2-1.4-2.4-1.4s-2.7,1.4-5.9,1.4s-4.6-2-6.2-2s-2.8,2.2-6.2,2.2s-5.5-2-6.6-1.9s-1.1,1.8-3.4,2.2s-1.9,0.8-3.6,0.8
	S1.6,24.8,1.6,24.8z"/>
<path class="st0" d="M1.6,36.4c0,0,3.3,2.6,5.2,2.6s3.4-0.6,5.4-0.6s2.8,1.1,3.6,1.2s3.6,1.1,6.1,0.4s2.4-0.8,3.9-0.8
	s2.6,1.1,5.2,0.9s4.5-1.4,6.1-1.6s4.4,0.4,6.2,0.3s2.8-0.5,3.6-0.9s1.7-1.7,1.7-1.7s-3,0.6-5.1,0.5s-2.5-0.5-3.5-1.2
	S38.6,34,37.4,34s-2.7,1.4-5.9,1.4s-4.6-2-6.2-2s-2.8,2.2-6.2,2.2s-5.5-2-6.6-1.9s-1.1,1.8-3.4,2.2s-1.9,0.8-3.6,0.8
	S1.6,36.4,1.6,36.4z"/>
</svg>
