<svg xmlns="http://www.w3.org/2000/svg" height="113" width="616" viewBox="0 0 616.38 112.81"><defs><style>.cls-1{fill:#004b97}.cls-2{fill:#fff}.cls-3{fill:#c2002f}</style></defs><path class="cls-1" d="M133.77 27.43h23.7c13.84 0 22.21 8.2 22.21 20v.13C179.68 61 169.24 68 156.23 68h-9.7v17.4h-12.76v-58zm22.88 29.25c6.38 0 10.11-3.81 10.11-8.78v-.17c0-5.72-4-8.78-10.36-8.78h-9.86v17.73h10.11zm24.67 6.79v-.16c0-12.68 9-23.12 22-23.12 14.84 0 21.68 11.52 21.68 24.11 0 1-.08 2.15-.16 3.31h-31c1.24 5.72 5.22 8.7 10.86 8.7 4.23 0 7.29-1.33 10.77-4.56l7.21 6.38c-4.14 5.14-10.11 8.29-18.15 8.29-13.34.01-23.21-9.36-23.21-22.95zm31.32-3.73c-.75-5.64-4.06-9.45-9.37-9.45s-8.62 3.73-9.61 9.45h19zm16.51 12.93v-.16c0-9.7 7.37-14.17 17.9-14.17a31.54 31.54 0 0 1 10.85 1.82v-.75c0-5.22-3.23-8.12-9.53-8.12a32.67 32.67 0 0 0-12.27 2.4l-3.15-9.61a39.21 39.21 0 0 1 17.24-3.56c6.88 0 11.85 1.82 15 5 3.31 3.31 4.81 8.2 4.81 14.17v25.74h-12.18v-4.82c-3.07 3.4-7.29 5.64-13.43 5.64-8.39.01-15.24-4.8-15.24-13.58zm28.92-2.9v-2.24a19.53 19.53 0 0 0-8-1.66c-5.38 0-8.7 2.15-8.7 6.13v.17c0 3.4 2.82 5.39 6.88 5.39 5.84.05 9.82-3.23 9.82-7.79zm17.25-6.3v-.16a22.8 22.8 0 0 1 22.47-23.12h.82c8.37 0 13.59 2.82 17.73 7.46l-7.7 8.29c-2.82-3-5.64-4.89-10.11-4.89-6.3 0-10.77 5.55-10.77 12.1v.16c0 6.8 4.39 12.26 11.27 12.26 4.23 0 7.12-1.82 10.19-4.72l7.37 7.46c-4.31 4.72-9.28 8.12-18.15 8.12a22.68 22.68 0 0 1-23.12-22.23v-.73zm42.8.09v-.17c0-12.68 9-23.12 22-23.12 14.83 0 21.63 11.52 21.63 24.11 0 1-.08 2.15-.17 3.31h-30.94c1.24 5.72 5.22 8.7 10.85 8.7 4.23 0 7.29-1.33 10.77-4.56l7.21 6.38c-4.15 5.15-10.15 8.3-18.15 8.3-13.32 0-23.2-9.36-23.2-22.95zm31.33-3.73c-.75-5.64-4.06-9.45-9.37-9.45s-8.62 3.73-9.61 9.45h19zm39-3.22v-.18c0-16.49 12.43-30 30.25-30 10.94 0 17.48 3.65 22.87 9l-8.12 9.36c-4.48-4.06-9-6.55-14.84-6.55-9.78 0-16.82 8.12-16.82 18.07v.17c0 9.95 6.88 18.23 16.82 18.23 6.63 0 10.69-2.65 15.25-6.8l8.12 8.2c-6 6.38-12.59 10.36-23.78 10.36-17.07-.04-29.75-13.22-29.75-29.86zm56.2 6.86v-.16c0-12.76 10.28-23.12 24.12-23.12s24 10.19 24 23v.12c0 12.76-10.28 23.12-24.12 23.12s-24-10.2-24-22.96zm35.64 0v-.16c0-6.55-4.73-12.26-11.69-12.26-7.21 0-11.52 5.55-11.52 12.1v.16c0 6.55 4.72 12.26 11.68 12.26 7.21 0 11.56-5.55 11.56-12.1zM498.69 41h12.63v9c2.57-6.13 6.71-10.11 14.17-9.78v13.14h-.67c-8.37 0-13.51 5.06-13.51 15.66v16.41h-12.62V41zm32.8 0h12.59v6.38c3.07-4.14 7.29-7.21 13.84-7.21 10.36 0 20.22 8.12 20.22 23v.13c0 14.83-9.7 23-20.22 23a17.06 17.06 0 0 1-13.83-6.7v19.07h-12.6V41zm34.06 22.3v-.16c0-7.37-5-12.26-10.85-12.26s-10.78 4.89-10.78 12.26v.17c0 7.38 4.89 12.26 10.77 12.26s10.86-4.81 10.86-12.26zm14.77 16.25l5.39-8.29c4.81 3.48 9.86 5.3 14 5.3 3.64 0 5.3-1.33 5.3-3.31v-.16c0-2.74-4.31-3.65-9.2-5.14-6.22-1.82-13.26-4.72-13.26-13.34v-.17c0-9 7.3-14.09 16.24-14.09a30.74 30.74 0 0 1 16.57 5.14l-4.81 8.7c-4.39-2.57-8.79-4.14-12-4.14s-4.64 1.33-4.64 3.07v.17c0 2.49 4.23 3.65 9 5.3 6.26 2 13.47 5 13.47 13.17v.17c0 9.86-7.37 14.34-17 14.34a31.1 31.1 0 0 1-19.06-6.72zM90.65 58.56c-.45 5.58-2.28 10.8-6.18 14.85l.07-.07c-4.17 5.45-11.54 9.27-21.9 11.27-18.7 3.64-29.64 7.89-35.64 20A56.43 56.43 0 1 0 4.42 34.5c11.12 1 23.49 5.73 34.22 17.21 2.91.93 14.74 4.43 26.68 3.89-15.46-5.67-22.38-26-22.54-28.34 9 1 13.22 1.06 18.16 1.56 9.55.93 17.89 5.59 20 13.93a16.87 16.87 0 0 1 .52 4.85c2.62-3.66 3.52-7 7.68-8.19 4.55-1.24 7.48.85 9 3.41-6.53 2.14-5.53 8.42-7.53 15.71"/><path class="cls-2" d="M60.94 70.57a25.37 25.37 0 0 0 20.82-1.18c5.06-2.47 7.34-6.69 8.85-10.85 2-7.29 1-13.57 7.53-15.71-1.52-2.56-4.45-4.65-9-3.41-4.14 1.19-5.06 4.58-7.68 8.19a16.87 16.87 0 0 0-.52-4.85c-2.11-8.34-10.45-13-20-13.93-4.94-.5-9.14-.56-18.16-1.56.16 2.34 7.08 22.67 22.54 28.34-11.94.54-23.77-3-26.68-3.89 1 1.11 2.07 2.26 3.07 3.5 6.75 8.3 13.2 13.06 19.23 15.35z"/><path class="cls-3" d="M81.79 69.41a25.36 25.36 0 0 1-20.86 1.16c-6-2.28-12.5-7-19.27-15.37-1-1.24-2.08-2.39-3.08-3.5h.05C27.9 40.23 15.53 35.52 4.41 34.5c-.12.28-.24.56-.35.84s-.26.64-.38 1c-.2.53-.4 1.07-.58 1.61l-.3.87c-.19.59-.38 1.19-.55 1.79l-.21.73q-.28 1-.52 2l-.12.52q-.29 1.22-.51 2.44v.19A56.81 56.81 0 0 0 0 54.85c14.53-2.44 30.54 5.66 39.46 11.22 19.19 12 35.21 11.38 43.76 5.47-6 5.3-17.37 8-32.67 4.28q-3.28-.81-6.79-2C33.91 70.4 25.85 69.2 19.4 69.2c-8.08 0-13.63 1.87-17 3.56a56.28 56.28 0 0 0 10.37 19.42C22.08 83.52 35.31 80.75 57 81.5h5.3c.63 0 1.25-.06 1.85-.1h.29c.68-.05 1.35-.12 2-.19 8.41-1 14.2-3.84 18-7.76s5.74-9.27 6.18-14.85c-1.49 4.12-3.77 8.34-8.83 10.81z"/></svg>