<?xml version="1.0" encoding="utf-8"?>
<!-- Generator: Adobe Illustrator 19.1.0, SVG Export Plug-In . SVG Version: 6.00 Build 0)  -->
<svg version="1.1"
	 id="svg3025" xmlns:sodipodi="http://sodipodi.sourceforge.net/DTD/sodipodi-0.dtd" xmlns:dc="http://purl.org/dc/elements/1.1/" xmlns:rdf="http://www.w3.org/1999/02/22-rdf-syntax-ns#" xmlns:svg="http://www.w3.org/2000/svg" xmlns:cc="http://creativecommons.org/ns#" xmlns:inkscape="http://www.inkscape.org/namespaces/inkscape" sodipodi:docname="globe_font_awesome.svg" inkscape:version="0.48.3.1 r9886"
	 xmlns="http://www.w3.org/2000/svg" xmlns:xlink="http://www.w3.org/1999/xlink" x="0px" y="0px" viewBox="0 0 50 50"
	 style="enable-background:new 0 0 50 50;" xml:space="preserve">
<style type="text/css">
	.st0{fill:#00CC99;}
</style>
<sodipodi:namedview  id="namedview3031" inkscape:cx="896" gridtolerance="10" guidetolerance="10" inkscape:zoom="0.13169643" bordercolor="#666666" showgrid="false" pagecolor="#ffffff" borderopacity="1" objecttolerance="10" inkscape:cy="896" inkscape:current-layer="svg3025" inkscape:window-maximized="0" inkscape:window-y="25" inkscape:window-x="0" inkscape:pageopacity="0" inkscape:window-height="480" inkscape:window-width="640" inkscape:pageshadow="2">
	</sodipodi:namedview>
<g id="g3027" transform="matrix(1,0,0,-1,136.67797,1300.6102)">
	<path id="path3029" inkscape:connector-curvature="0" class="st0" d="M-99.4,1284.2c0.2,0.1,0.4,0.3,0.7,0.6v0c0,0-0.1-0.1-0.3-0.3
		c-0.2-0.1-0.3-0.3-0.3-0.3C-99.3,1284.2-99.3,1284.2-99.4,1284.2z M-99.5,1284.2C-99.6,1284.2-99.6,1284.2-99.5,1284.2
		c-0.1,0.1-0.1,0.1-0.1,0.2c0.1,0,0.1-0.1,0.3-0.1C-99.5,1284.1-99.5,1284.1-99.5,1284.2z M-112.3,1289.3c-0.3,0-0.5,0.1-0.7,0.1
		c0,0,0.1,0,0.2,0c0.1,0,0.2,0,0.3-0.1C-112.5,1289.3-112.4,1289.3-112.3,1289.3z M-111.1,1290.3c0.1,0.1,0.3,0.1,0.4,0.1
		c0.1,0,0.2-0.1,0.2-0.2C-110.6,1290.2-110.8,1290.3-111.1,1290.3z M-111.3,1290.2L-111.3,1290.2c-0.1,0.1-0.2,0.2-0.2,0.2
		s-0.1,0.1-0.1,0.1c0,0,0.2,0,0.6-0.1C-111.2,1290.3-111.3,1290.2-111.3,1290.2z M-114.2,1292.5L-114.2,1292.5
		C-114.1,1292.5-114.1,1292.5-114.2,1292.5c0.1-0.2,0.1-0.2,0.2-0.3L-114.2,1292.5z M-117.1,1291.4
		C-117.1,1291.3-117.1,1291.3-117.1,1291.4L-117.1,1291.4L-117.1,1291.4z M-106.6,1262.3L-106.6,1262.3L-106.6,1262.3z
		 M-111.2,1295.8c3.9,0,7.5-1,10.8-2.9c3.3-1.9,5.9-4.5,7.8-7.8c1.9-3.3,2.9-6.9,2.9-10.8c0-3.9-1-7.5-2.9-10.8s-4.5-5.9-7.8-7.8
		c-3.3-1.9-6.9-2.9-10.8-2.9s-7.5,1-10.8,2.9c-3.3,1.9-5.9,4.5-7.8,7.8s-2.9,6.9-2.9,10.8c0,3.9,1,7.5,2.9,10.8
		c1.9,3.3,4.5,5.9,7.8,7.8C-118.7,1294.8-115.1,1295.8-111.2,1295.8z M-98.1,1261l0.1,0.1c-0.1,0.2-0.4,0.3-0.8,0.3
		c0,0.2-0.1,0.5-0.4,0.7c-0.3,0.3-0.5,0.4-0.8,0.4c0,0.1-0.1,0.2-0.3,0.3c-0.2,0.1-0.4,0.2-0.5,0.2c-0.2,0-0.4,0-0.8-0.3
		c-0.1-0.1-0.2-0.1-0.1-0.1c-0.1,0.1-0.2,0.2-0.3,0.3s-0.3,0.3-0.4,0.3c0,0-0.1,0-0.2,0c-0.1,0-0.2,0-0.2,0.1c0,0-0.1,0.1-0.2,0.1
		c-0.1,0.1-0.2,0.1-0.2,0.1c0,0-0.1,0-0.2,0.1c-0.1,0-0.2,0.1-0.2,0c-0.1,0-0.1,0-0.2-0.1c-0.1,0-0.2-0.1-0.2-0.2
		c-0.1-0.1-0.1-0.2-0.1-0.4s0-0.3-0.1-0.4c-0.1,0.1-0.2,0.3,0,0.6c0.1,0.3,0.2,0.4,0,0.6c-0.1,0.1-0.3,0.1-0.6,0
		c-0.3-0.1-0.5-0.3-0.6-0.4c0,0-0.1-0.1-0.3-0.2s-0.3-0.2-0.3-0.2c-0.1-0.1-0.2-0.3-0.3-0.5c-0.1-0.2-0.1-0.3-0.2-0.4
		c0,0,0,0.1-0.1,0.2c0,0.1-0.1,0.1-0.1,0.2c-0.2,0-0.4,0-0.4,0.1c0.1-0.3,0.2-0.5,0.2-0.5l-0.1,0.1c0-0.1,0-0.3,0.1-0.4
		c0.1-0.2,0.1-0.3,0.1-0.3c0-0.1,0-0.2,0-0.4c0-0.1-0.1-0.3-0.1-0.3c0,0,0-0.1,0.1-0.3c0.1-0.4,0.1-0.7-0.1-0.9c0,0,0-0.1-0.1-0.2
		c-0.1-0.1-0.1-0.2-0.2-0.3l-0.1-0.1l-0.1,0c0,0,0,0-0.1,0c0-0.1-0.1-0.2-0.3-0.4c-0.1-0.1-0.2-0.2-0.3-0.3
		c-0.3-0.4-0.4-0.8-0.3-1.1c0.1-0.1,0.1-0.2,0.3-0.3c0.1,0,0.1,0,0.1,0.1c0-0.2-0.1-0.4-0.3-0.8c0,0,0.1,0,0.1-0.1
		c-0.3,0-0.4-0.1-0.3-0.4C-104.2,1256.6-100.9,1258.3-98.1,1261l-0.1-0.1L-98.1,1261z M-113.7,1266.2c0.3,0.1,0.6-0.1,0.9-0.4
		c0.3-0.4,0.5-0.6,0.6-0.6c0.8-0.4,1.3-0.5,1.6-0.3c0-0.2,0.1-0.4,0.4-0.8c0.1-0.1,0.1-0.2,0.2-0.3s0.1-0.2,0.2-0.3
		c0.1-0.1,0.3-0.3,0.5-0.4c0.3-0.2,0.4-0.3,0.5-0.4c0.1,0.1,0.2,0.1,0.3,0.3c0.2-0.7,0.5-1,0.7-0.9c0.1,0,0.2,0.1,0.2,0.2
		c0,0,0,0,0-0.1s0-0.1,0-0.1c0.1,0.3,0.2,0.5,0.1,0.7l0.2,0.1c0.1,0.1,0.1,0.1,0.1,0.1c-0.1,0.1-0.2,0.1-0.3-0.1
		c-0.6-0.3-1-0.1-1.3,0.6c0,0.1-0.1,0.1-0.1,0.2c0,0.1-0.1,0.2-0.1,0.3c0,0.1-0.1,0.2,0,0.3s0.1,0.1,0.2,0.1c0.2,0,0.3,0,0.3,0
		c0,0,0,0.1-0.1,0.2c-0.1,0.1-0.1,0.2-0.1,0.2c0,0.1,0,0.2,0,0.3c0,0.2,0,0.3,0,0.3l-0.1,0.2c-0.1,0.1-0.2,0.2-0.3,0.4
		c-0.1,0.1-0.2,0.2-0.2,0.3c-0.1-0.2-0.2-0.3-0.5-0.2c-0.2,0-0.4,0.1-0.5,0.3c0,0,0-0.1,0-0.2s0-0.1,0-0.2c-0.3,0-0.4,0-0.5,0
		c0,0.1,0,0.3,0.1,0.6s0.1,0.5,0.1,0.6c0,0.1,0.1,0.2,0.2,0.4c0.1,0.2,0.2,0.3,0.2,0.4c0.1,0.1,0.1,0.3,0.1,0.4c0,0.1,0,0.2-0.1,0.3
		c-0.1,0.1-0.3,0.1-0.5,0.1c-0.4,0-0.6-0.2-0.8-0.6c0-0.1,0-0.2-0.1-0.3c0-0.2-0.1-0.3-0.1-0.3c-0.1-0.1-0.1-0.1-0.3-0.2
		c-0.1-0.1-0.4-0.1-0.8-0.1s-0.6,0.1-0.7,0.1c-0.3,0.1-0.5,0.4-0.7,0.9c-0.2,0.4-0.3,0.8-0.3,1.2c0,0.2,0,0.4,0.1,0.8
		c0.1,0.3,0.1,0.6,0.1,0.8c0,0.2-0.1,0.4-0.2,0.7c0.1,0,0.1,0.1,0.3,0.3c0.1,0.2,0.2,0.3,0.3,0.3c0,0,0.1,0.1,0.1,0.1h0.1
		c0,0,0,0,0.1,0.1c0.1,0,0.1,0.1,0.1,0.2c0,0-0.1,0-0.1,0.1c-0.1,0.1-0.1,0.1-0.1,0.1c0.1-0.1,0.3-0.1,0.5,0c0.3,0,0.5,0.1,0.5,0.1
		c0,0,0.2,0,0.6,0c0.3-0.2,0.5-0.2,0.7,0.1c0,0,0,0.1-0.1,0.3c0,0.2-0.1,0.3,0,0.4c0.1-0.5,0.4-0.6,0.9-0.3c0.1-0.1,0.2-0.1,0.5-0.2
		c0.3,0,0.4-0.1,0.5-0.1c0.1,0,0.1-0.1,0.2-0.2c0.1-0.1,0.1-0.1,0.2-0.1s0.1,0,0.2,0c0.1,0,0.2,0.1,0.3,0.2c0.2-0.3,0.3-0.5,0.4-0.7
		c0.2-0.8,0.4-1.2,0.6-1.3c0.1,0,0.3-0.1,0.3-0.1c0.1,0,0.1,0.1,0.1,0.3s0,0.3,0,0.4s0,0.2,0,0.4l-0.1,1c-0.3,0.1-0.5,0.2-0.6,0.3
		c-0.1,0.2-0.1,0.4,0,0.6s0.3,0.4,0.5,0.5c0,0,0.2,0.1,0.5,0.2c0.3,0.1,0.5,0.2,0.6,0.3c0.4,0.4,0.6,0.7,0.5,1.1
		c0.2,0,0.3,0,0.3,0.3l-0.1,0.1c-0.1,0.1-0.1,0.1-0.2,0.2c-0.1,0-0.1,0.1-0.1,0c0.2,0.1,0.2,0.3,0.1,0.5c0.1,0.1,0.2,0.2,0.2,0.3
		c0.1,0.2,0.1,0.3,0.3,0.3c0.2-0.3,0.4-0.3,0.6-0.1c0.1,0.2,0.2,0.3,0.1,0.5c0.1,0.1,0.3,0.3,0.6,0.3c0.3,0.1,0.5,0.2,0.6,0.3
		c0.1,0,0.2,0,0.2,0c0,0,0.1,0.1,0.1,0.1v0.2c0,0,0,0.1,0,0.2c0,0.2,0,0.2,0.1,0.2c0.1,0.1,0.2,0.2,0.4,0.3c0.2,0.1,0.4,0.1,0.4,0.2
		l0.5,0.3c0.1,0.1,0.1,0.1,0,0.1c0.3,0,0.6,0.1,0.9,0.3c0.2,0.2,0.2,0.4-0.1,0.6c0,0.1,0,0.2-0.1,0.3c-0.1,0.1-0.3,0.1-0.4,0.2
		c0.1,0,0.2,0,0.3,0c0.2,0,0.3,0,0.3,0c0.3,0.2,0.2,0.4-0.2,0.5c-0.4,0.1-0.8,0-1.3-0.4c-0.1,0-0.2-0.1-0.4-0.3
		c-0.2-0.2-0.3-0.3-0.5-0.3c0.3,0.3,0.3,0.5,0.1,0.6c0.1,0,0.4,0.1,0.6,0.3c0.3,0.2,0.4,0.3,0.4,0.3c0.1,0,0.2,0.1,0.3,0.1
		c0.1,0,0.2,0,0.2,0c1.3,0.5,2.2,0.5,2.6,0c0.1,0.2,0.3,0.3,0.3,0.4c0.1,0.1,0.1,0.2,0.3,0.3c0.1,0.1,0.3,0.2,0.4,0.2
		c0.4,0.1,0.6,0.2,0.6,0.3l0,0.6c-0.2,0-0.4,0.1-0.5,0.2c-0.1,0.2-0.2,0.4-0.2,0.6l-0.2-0.2c0,0.1,0,0.2-0.1,0.2c-0.1,0-0.1,0-0.2,0
		c-0.1,0-0.2,0-0.3-0.1s-0.2,0-0.2,0c-0.2,0-0.3,0.2-0.5,0.4s-0.3,0.4-0.4,0.5c0.2,0,0.3,0,0.3,0.1c0,0.1-0.1,0.2-0.3,0.2
		c0,0.1,0,0.2-0.1,0.2c-0.1,0-0.1,0-0.3,0c0,0.2,0,0.3,0,0.4c-0.1,0-0.2,0.1-0.3,0.3s-0.2,0.3-0.2,0.3c0,0-0.1,0-0.1-0.1
		c0,0-0.1-0.1-0.1-0.2l-0.1-0.2c0,0,0-0.1-0.1-0.2l-0.1-0.1c-0.2,0.1-0.4,0-0.7-0.3c-0.2,0-0.3,0-0.5-0.1c0.3,0.1,0.3,0.2,0.1,0.4
		c-0.2,0.1-0.4,0.1-0.6,0.1c0.2,0.1,0.3,0.2,0.3,0.4c0,0.2-0.1,0.3-0.3,0.4c0,0,0.1,0,0.1,0c0.1,0,0.1,0,0.1,0
		c0,0.1-0.1,0.2-0.3,0.3c-0.2,0.1-0.3,0.2-0.5,0.3c-0.2,0.1-0.3,0.1-0.4,0.2c-0.1,0.1-0.5,0.2-1,0.3s-0.9,0.1-1,0
		c-0.1-0.1-0.1-0.1-0.2-0.2c0-0.1,0-0.1,0-0.2c0-0.1,0.1-0.2,0.1-0.2c0.1-0.4,0.2-0.7,0.1-0.8c0-0.1-0.1-0.1-0.2-0.2
		c-0.1-0.1-0.2-0.2-0.2-0.3c0-0.1,0.1-0.2,0.3-0.3c0.2-0.1,0.3-0.2,0.3-0.3c0.1-0.2,0.1-0.5-0.1-0.7c-0.1-0.1-0.2-0.2-0.4-0.3
		s-0.3-0.2-0.4-0.3c-0.1-0.1-0.1-0.2-0.1-0.3c0-0.1,0-0.2,0-0.3c0,0,0,0,0,0.1c0,0,0,0.1,0,0.1c0-0.2,0.1-0.4,0.3-0.6
		c0.1-0.1,0-0.3-0.4-0.5c-0.4-0.2-0.6-0.2-0.6-0.1c0,0.1-0.1,0.3-0.2,0.4s-0.3,0.3-0.3,0.3c0,0.1-0.1,0.3-0.1,0.5
		c0,0.3-0.1,0.5-0.3,0.6c-0.1,0.1-0.3,0.1-0.5,0.1c-0.2,0-0.4,0-0.5-0.1c0,0.2-0.5,0.5-1.4,0.8c-0.3,0.1-0.9,0.2-1.6,0.1
		c0.1,0,0.1,0.2,0,0.5c-0.1,0.3-0.3,0.4-0.6,0.3c-0.1,0.5-0.2,0.8-0.1,1c0,0.1,0.1,0.2,0.3,0.4c0.1,0.2,0.2,0.3,0.3,0.4
		c0,0.1,0.2,0.1,0.4,0.2c0.3,0.1,0.4,0.1,0.5,0.2c0,0.1,0,0.1-0.1,0.2c-0.1,0-0.2,0.1-0.3,0.1c1-0.1,1.6,0.1,1.8,0.5
		c0.1,0.2,0.1,0.3,0.1,0.4c0,0,0,0,0.1,0s0.1,0,0.1,0c0.2,0.1,0.3,0.2,0.2,0.5c0.4,0.1,0.6,0.2,0.7,0.2c0.1,0,0.2-0.1,0.3-0.2
		c0.1-0.1,0.2-0.1,0.3-0.1c0.3-0.1,0.5,0,0.6,0.3c0.1,0.2,0,0.5-0.3,0.6c0.1-0.1,0.2,0,0.2,0.2c0,0.2-0.1,0.4-0.2,0.5
		c-0.1,0-0.1,0.1-0.2,0.1c-0.1,0-0.1,0-0.2,0s-0.1,0-0.2,0c0,0-0.1,0-0.2,0.1c0,0,0,0-0.1,0h-0.2c-0.1,0-0.1-0.1-0.1-0.1v0
		c0-0.1,0-0.1,0.1-0.2l0.1,0l0.1-0.1c0,0,0,0-0.1-0.1c0,0-0.1-0.1-0.1-0.1c0-0.1,0-0.1,0.1-0.1c0,0-0.2-0.1-0.4-0.2
		c-0.2-0.1-0.4-0.2-0.5-0.3c0,0-0.1,0-0.1-0.1c-0.1,0-0.1-0.1-0.1-0.1c0,0-0.1,0-0.1,0.1s-0.1,0.1-0.1,0.3c0,0.1-0.1,0.2-0.1,0.3
		s-0.1,0.2-0.1,0.3c0,0.1-0.1,0.1-0.2,0.1c-0.2,0-0.4-0.2-0.5-0.5c0.1,0.2-0.1,0.3-0.4,0.5c-0.3,0.1-0.5,0.2-0.7,0.2
		c0.4,0.3,0.3,0.6-0.3,0.8l0,0c-0.6-0.1-1-0.1-1.3-0.2c0-0.1,0-0.2,0.1-0.3c0-0.1,0-0.2,0.2-0.3c0,0,0,0,0,0c0,0,0,0,0,0
		c0,0,0,0,0,0c0,0,0,0,0,0c0.1,0,0.2,0,0.3,0s0.2,0,0.3,0c0.1,0,0.1,0,0.1-0.1l0.2-0.1c0,0,0.1-0.1,0.2-0.2c0.1-0.1,0.1-0.2-0.1-0.1
		c0,0-0.1-0.1-0.3-0.1c-0.1-0.1-0.2-0.1-0.3-0.2c-0.1,0-0.2-0.1-0.2-0.1c-0.1-0.1-0.1-0.2,0-0.4s0-0.3-0.1-0.4
		c-0.1,0.1-0.2,0.3-0.3,0.5c-0.1,0.3-0.2,0.4-0.2,0.5c0.1-0.2-0.1-0.2-0.8-0.2l-0.2,0c-0.1,0-0.2,0-0.4-0.1c-0.2,0-0.4,0-0.4,0
		c-0.1,0-0.4,0.1-0.8,0.2c0.1,0.3,0.2,0.5,0.1,0.7c0.1,0,0.2,0,0.2,0.1l-0.2,0.1c-0.1,0-0.3-0.1-0.7-0.3c0-0.1,0.1-0.1,0.2-0.3
		c0.1-0.1,0.2-0.2,0.3-0.3c-0.4,0.1-0.7,0.1-0.8-0.1c0,0-0.1,0-0.3,0c-0.5,0-0.7,0-0.7-0.2c0-0.1,0.1-0.2,0.3-0.3c0-0.2,0-0.3,0-0.3
		c-0.5,0.4-0.8,0.6-0.8,0.6c-3.2-1.5-5.8-3.9-7.7-6.9c0,0,0-0.1,0.1-0.3c0-0.2,0.1-0.2,0.1-0.2c0,0,0.1,0.1,0.3,0.1
		c0.2-0.2,0.2-0.4,0.1-0.6c0,0,0.4-0.2,1-0.6c1-0.7,1.2-1.2,0.6-1.5v0.2c0,0,0,0.1,0,0.2c-0.2,0-0.3,0-0.5,0.1
		c-0.1-0.1-0.1-0.3,0-0.6c0.1-0.3,0.2-0.4,0.3-0.4c-0.1,0-0.2-0.2-0.3-0.5c0-0.3-0.1-0.7-0.1-1.1s0-0.6,0-0.7l0.1,0
		c-0.1-0.2,0-0.6,0.2-1c0.2-0.5,0.4-0.6,0.7-0.6c-0.1-0.3,0-0.5,0.1-0.6c0-0.1,0-0.1,0-0.2c0-0.1,0.1-0.2,0.1-0.2
		c0.1-0.1,0.1-0.1,0.2-0.2l0.2-0.2l0.2-0.2c0.5-0.2,0.9-0.5,1.1-0.8c0.1-0.1,0.2-0.3,0.3-0.7c0.1-0.3,0.3-0.6,0.4-0.7
		c0-0.1,0.1-0.3,0.3-0.6c0.2-0.3,0.3-0.5,0.3-0.7c0,0,0,0-0.1,0s-0.1,0-0.1,0c0.1-0.1,0.2-0.3,0.5-0.4c0.3-0.1,0.4-0.3,0.5-0.4
		c0-0.1,0.1-0.2,0.1-0.3s0-0.3,0.1-0.3c0-0.1,0.1-0.1,0.2-0.1c0.1,0.4-0.2,1.1-0.7,1.9c-0.3,0.5-0.5,0.8-0.5,0.9
		c-0.1,0.1-0.1,0.2-0.2,0.5c0,0.2-0.1,0.4-0.1,0.4c0.5-0.2,0.7-0.3,0.7-0.4c-0.1-0.2,0.1-0.7,0.7-1.5c0-0.1,0.1-0.1,0.3-0.3
		c0.1-0.1,0.3-0.2,0.3-0.3c0.1-0.1,0.1-0.2,0.3-0.4c0.1-0.2,0.2-0.3,0.3-0.4c0,0,0,0-0.1-0.1l-0.1-0.1c0.1,0,0.2-0.1,0.3-0.1
		c0.1-0.1,0.2-0.1,0.2-0.1c0.1,0,0.1-0.1,0.2-0.1c0.1-0.1,0.2-0.1,0.2-0.2c0.3-0.3,0.5-0.6,0.6-0.9c0-0.1,0-0.2,0-0.4
		c0-0.2,0-0.4,0-0.5c0-0.1,0.1-0.2,0.2-0.3c0.1-0.1,0.2-0.2,0.3-0.3c0.1-0.1,0.2-0.2,0.3-0.2c0.1,0,0.2-0.1,0.4-0.2s0.3-0.1,0.3-0.2
		c0,0,0.2-0.1,0.5-0.3s0.5-0.3,0.7-0.4c0.2-0.1,0.3-0.1,0.5-0.1c0.1,0,0.3,0,0.4,0.1C-113.9,1266.1-113.8,1266.2-113.7,1266.2z"/>
</g>
</svg>
