<?xml version="1.0" encoding="utf-8"?>
<!-- Generator: Adobe Illustrator 19.1.0, SVG Export Plug-In . SVG Version: 6.00 Build 0)  -->
<svg version="1.1" id="Layer_1" xmlns="http://www.w3.org/2000/svg" xmlns:xlink="http://www.w3.org/1999/xlink" x="0px" y="0px"
	 viewBox="0 0 100 100" style="enable-background:new 0 0 100 100;" xml:space="preserve">
<style type="text/css">
	.st0{fill:#FFFFFF;}
	.st1{fill:#FF5079;}
	.st2{fill:#F2F2F2;}
	.st3{fill:#E6E6E6;}
</style>
<circle class="st0" cx="72" cy="35.5" r="26.5"/>
<path class="st0" d="M42,23.2c-5,9.2-1.6,19.7-1.6,19.7l-2.7,1.9c0,0,0.4,3.8,2.9,7.9c2.6,4.1,4.8,6.2,4.8,6.2l-6.8,6.5L34.4,64
	l-27,27.8L2,88.9l8.5-21.6L2,46.4l7.9-20.4L2,4.1L23.6,12l21.3-7.9l9.9,3.7l-0.2,0l1.1,0.4C55.7,8.2,47,14,42,23.2z"/>
<path class="st1" d="M71.7,30c0,0-0.7-5.6-6.5-5.6c-5.9,0-7.9,4.2-7.9,8.8s2.7,8,5.2,10.7c2.5,2.6,8.7,7.6,8.7,7.6s6.4-4.1,9.5-7.8
	s4.8-5.4,5-9.7s-2.1-9.6-6.2-9.6C72.7,24.5,71.7,30,71.7,30z"/>
<polygon class="st2" points="66.1,97.2 59.7,94.8 45,89.1 23.3,97.6 21.2,96.1 41.6,75.9 41.6,75.9 42.8,74.6 43.7,73.8 66,77.6 "/>
<path class="st3" d="M92.8,60.2C92.8,60.2,92.8,60.2,92.8,60.2c-0.2,0.2-3.2,3.1-11.3,6.2C73.2,69.6,65,66.8,65,66.8l-2.5,2.8
	l-13.4-7.1l-6.1,6.3l0.8,4.7l-0.2,0.2L66,77.6l0.1,19.6l0.1,0L87.5,89L96,67.9L92.8,60.2z"/>
</svg>
