<?xml version="1.0" encoding="UTF-8" standalone="no"?>
<!-- Generator: Adobe Illustrator 19.1.0, SVG Export Plug-In . SVG Version: 6.00 Build 0)  -->

<svg
   xmlns:dc="http://purl.org/dc/elements/1.1/"
   xmlns:cc="http://creativecommons.org/ns#"
   xmlns:rdf="http://www.w3.org/1999/02/22-rdf-syntax-ns#"
   xmlns:svg="http://www.w3.org/2000/svg"
   xmlns="http://www.w3.org/2000/svg"
   xmlns:sodipodi="http://sodipodi.sourceforge.net/DTD/sodipodi-0.dtd"
   xmlns:inkscape="http://www.inkscape.org/namespaces/inkscape"
   version="1.1"
   id="Layer_1"
   x="0px"
   y="0px"
   viewBox="0 0 50 50"
   style="enable-background:new 0 0 50 50;"
   xml:space="preserve"
   inkscape:version="0.91 r13725"
   sodipodi:docname="river-osmgeoweek.svg"><metadata
     id="metadata15"><rdf:RDF><cc:Work
         rdf:about=""><dc:format>image/svg+xml</dc:format><dc:type
           rdf:resource="http://purl.org/dc/dcmitype/StillImage" /><dc:title></dc:title></cc:Work></rdf:RDF></metadata><defs
     id="defs13" /><sodipodi:namedview
     pagecolor="#ffffff"
     bordercolor="#666666"
     borderopacity="1"
     objecttolerance="10"
     gridtolerance="10"
     guidetolerance="10"
     inkscape:pageopacity="0"
     inkscape:pageshadow="2"
     inkscape:window-width="1057"
     inkscape:window-height="673"
     id="namedview11"
     showgrid="false"
     inkscape:zoom="4.72"
     inkscape:cx="24.788136"
     inkscape:cy="25"
     inkscape:window-x="96"
     inkscape:window-y="59"
     inkscape:window-maximized="0"
     inkscape:current-layer="Layer_1" /><style
     type="text/css"
     id="style3">
	.st0{fill:#00CC99;}
</style><path
     class="st0"
     d="M1.6,13.1c0,0,3.3,2.6,5.2,2.6s3.4-0.6,5.4-0.6s2.8,1.1,3.6,1.2s3.6,1.1,6.1,0.4s2.4-0.8,3.9-0.8  s2.6,1.1,5.2,0.9s4.5-1.4,6.1-1.6s4.4,0.4,6.2,0.3s2.8-0.5,3.6-0.9s1.7-1.7,1.7-1.7s-3,0.6-5.1,0.5s-2.5-0.5-3.5-1.2  s-1.2-1.4-2.4-1.4s-2.7,1.4-5.9,1.4s-4.6-2-6.2-2s-2.8,2.2-6.2,2.2s-5.5-2-6.6-1.9s-1.1,1.8-3.4,2.2s-1.9,0.8-3.6,0.8  S1.6,13.1,1.6,13.1z"
     id="path5"
     style="fill:#8cc250;fill-opacity:1" /><path
     class="st0"
     d="M1.6,24.8c0,0,3.3,2.6,5.2,2.6s3.4-0.6,5.4-0.6s2.8,1.1,3.6,1.2s3.6,1.1,6.1,0.4s2.4-0.8,3.9-0.8  s2.6,1.1,5.2,0.9s4.5-1.4,6.1-1.6s4.4,0.4,6.2,0.3s2.8-0.5,3.6-0.9s1.7-1.7,1.7-1.7s-3,0.6-5.1,0.5s-2.5-0.5-3.5-1.2  s-1.2-1.4-2.4-1.4s-2.7,1.4-5.9,1.4s-4.6-2-6.2-2s-2.8,2.2-6.2,2.2s-5.5-2-6.6-1.9s-1.1,1.8-3.4,2.2s-1.9,0.8-3.6,0.8  S1.6,24.8,1.6,24.8z"
     id="path7"
     style="fill:#8cc250;fill-opacity:1" /><path
     class="st0"
     d="M1.6,36.4c0,0,3.3,2.6,5.2,2.6s3.4-0.6,5.4-0.6s2.8,1.1,3.6,1.2s3.6,1.1,6.1,0.4s2.4-0.8,3.9-0.8  s2.6,1.1,5.2,0.9s4.5-1.4,6.1-1.6s4.4,0.4,6.2,0.3s2.8-0.5,3.6-0.9s1.7-1.7,1.7-1.7s-3,0.6-5.1,0.5s-2.5-0.5-3.5-1.2  S38.6,34,37.4,34s-2.7,1.4-5.9,1.4s-4.6-2-6.2-2s-2.8,2.2-6.2,2.2s-5.5-2-6.6-1.9s-1.1,1.8-3.4,2.2s-1.9,0.8-3.6,0.8  S1.6,36.4,1.6,36.4z"
     id="path9"
     style="fill:#8cc250;fill-opacity:1" /></svg>